<?xml version="1.0" encoding="utf-8"?>
<svg xmlns="http://www.w3.org/2000/svg" xmlns:svg="http://www.w3.org/2000/svg" version="1.1" viewBox="0 0 1400 440">
	<title>The titlepage for the Standard Ebooks edition of Brood of the Witch-Queen, by Sax Rohmer</title>
	<g aria-label="BROOD">
		<path d="M 514.32748,52.807016 V 130 h 29.28655 c 16,0 25.26316,-8.79532 25.26316,-21.52047 0,-12.444443 -6.83041,-17.777776 -16.46784,-19.461987 6.54971,-3.368421 9.63743,-9.450292 9.63743,-16.561404 0,-14.690058 -10.47953,-19.649123 -23.76608,-19.649123 z m 17.59065,30.222223 V 66.374268 h 1.4035 c 7.67252,0 11.69591,2.339181 11.69591,7.859649 0,6.456141 -4.11696,8.795322 -11.69591,8.795322 z m 0,33.403511 V 98.187134 h 5.52046 c 8.32749,0 12.91228,2.526316 12.91228,9.637426 0,6.08187 -4.58479,8.60819 -12.91228,8.60819 z"/>
		<path d="M 581.64474,52.807016 V 130 h 17.59064 V 99.497075 L 622.81433,130 H 645.1769 L 618.6038,98.093567 c 9.45029,-2.994152 15.81287,-10.760234 15.81287,-22.362574 0,-15.157895 -10.85381,-22.923977 -25.16959,-22.923977 z m 17.59064,34.245615 V 66.842104 h 2.05848 c 6.64327,0 14.59649,0.467836 14.59649,10.105263 0,9.637428 -7.95322,10.105264 -14.59649,10.105264 z"/>
		<path d="m 650.25146,91.356724 c 0,22.549706 16.09357,40.046786 38.92398,40.046786 22.17544,0 38.83041,-17.49708 38.83041,-40.046786 0,-22.549708 -17.40351,-39.953217 -38.83041,-39.953217 -21.23976,0 -38.92398,17.403509 -38.92398,39.953217 z m 18.99416,0 c 0,-11.508772 6.36257,-23.017544 19.92982,-23.017544 13.66082,0 19.83626,11.508772 19.83626,23.017544 0,11.508776 -5.80117,23.017546 -19.83626,23.017546 -14.40935,0 -19.92982,-11.50877 -19.92982,-23.017546 z"/>
		<path d="m 737.30556,91.356724 c 0,22.549706 16.09356,40.046786 38.92397,40.046786 22.17544,0 38.83041,-17.49708 38.83041,-40.046786 0,-22.549708 -17.4035,-39.953217 -38.83041,-39.953217 -21.23976,0 -38.92397,17.403509 -38.92397,39.953217 z m 18.99415,0 c 0,-11.508772 6.36257,-23.017544 19.92982,-23.017544 13.66082,0 19.83626,11.508772 19.83626,23.017544 0,11.508776 -5.80117,23.017546 -19.83626,23.017546 -14.40935,0 -19.92982,-11.50877 -19.92982,-23.017546 z"/>
		<path d="M 827.82162,52.807016 V 130 h 22.36258 c 21.23976,0 38.92397,-16.09357 38.92397,-38.643276 0,-22.45614 -17.77777,-38.549708 -38.92397,-38.549708 z M 845.41227,114.2807 V 68.526315 h 2.71345 c 13.09941,0 21.9883,10.011696 21.9883,22.923977 -0.0936,12.912278 -8.98245,22.830408 -21.9883,22.830408 z"/>
	</g>
	<g aria-label="OF THE WITCH-QUEEN">
		<path d="m 131.32601,191.35672 c 0,22.54971 16.09357,40.04679 38.92398,40.04679 22.17544,0 38.83041,-17.49708 38.83041,-40.04679 0,-22.5497 -17.40351,-39.95321 -38.83041,-39.95321 -21.23977,0 -38.92398,17.40351 -38.92398,39.95321 z m 18.99416,0 c 0,-11.50877 6.36257,-23.01754 19.92982,-23.01754 13.66082,0 19.83626,11.50877 19.83626,23.01754 0,11.50878 -5.80117,23.01755 -19.83626,23.01755 -14.40936,0 -19.92982,-11.50877 -19.92982,-23.01755 z"/>
		<path d="M 266.47367,152.80702 H 221.84209 V 230 h 17.59065 v -30.97076 h 24.98246 v -15.4386 h -24.98246 v -15.34503 h 27.04093 z"/>
		<path d="m 300.98977,168.24561 h 18.33918 V 230 h 17.59064 v -61.75439 h 18.33918 v -15.43859 h -54.269 z"/>
		<path d="m 384.1842,199.02924 h 24.88889 V 230 h 17.59065 v -77.19298 h -17.59065 v 30.78362 H 384.1842 V 152.80702 H 366.59356 V 230 h 17.59064 z"/>
		<path d="M 487.02923,152.80702 H 442.86549 V 230 h 44.16374 v -15.4386 h -26.5731 v -15.53216 h 25.45029 v -15.4386 h -25.45029 v -15.34503 h 26.5731 z"/>
		<path d="m 583.91375,230 h 19.46199 l 21.9883,-77.19298 h -19.46199 l -13.19298,52.95906 h -0.46784 L 578.20615,152.80702 H 564.9196 l -14.03509,52.95906 h -0.46784 L 537.22369,152.80702 H 517.66813 L 539.65644,230 h 19.55555 l 12.35088,-43.32164 z"/>
		<path d="M 652.17396,152.80702 H 634.58332 V 230 h 17.59064 z"/>
		<path d="m 659.0234,168.24561 h 18.33918 V 230 h 17.59064 v -61.75439 h 18.33918 v -15.43859 h -54.269 z"/>
		<path d="m 762.77925,214.09357 c -17.68421,0 -25.45029,-12.35088 -25.45029,-22.73685 0,-10.29239 7.76608,-22.64327 25.45029,-22.64327 8.98246,0 15.15789,4.77193 15.15789,4.77193 l 7.48538,-14.97076 c 0,0 -8.60818,-7.11111 -25.35672,-7.11111 -21.89474,0 -41.82456,17.96491 -41.82456,40.14035 0,22.08187 20.02339,39.85965 41.82456,39.85965 16.74854,0 25.35672,-7.11111 25.35672,-7.11111 l -7.48538,-14.97076 c 0,0 -6.17543,4.77193 -15.15789,4.77193 z"/>
		<path d="m 814.83482,199.02924 h 24.88889 V 230 h 17.59065 v -77.19298 h -17.59065 v 30.78362 H 814.83482 V 152.80702 H 797.24418 V 230 h 17.59064 z"/>
		<path d="m 873.51609,195.75439 v 14.31579 h 30.12866 v -14.31579 z"/>
		<path d="m 938.62426,246.18713 c 0,0 4.11696,-4.30409 11.4152,-4.30409 11.88304,0 16.65497,7.29825 28.16374,7.29825 12.25731,0 17.21638,-10.47954 17.21638,-10.47954 l -5.52047,-11.88304 c 0,0 -3.64912,5.05264 -11.60234,5.05264 -4.58479,0 -10.19883,-1.77778 -11.97661,-1.77778 v -0.37427 c 16,-4.8655 26.8538,-19.92983 26.8538,-38.36258 0,-22.5497 -16.93567,-39.95321 -38.36257,-39.95321 -21.23977,0 -38.45614,17.40351 -38.45614,39.95321 0,19.83626 12.07018,35.7427 30.40936,39.29825 v 0.37427 c -5.61404,0 -12.35088,8.79532 -12.35088,8.79532 z m -3.27486,-54.83041 c 0,-11.50877 5.89474,-22.269 19.46199,-22.269 13.66082,0 19.36842,10.76023 19.36842,22.269 0,11.50878 -5.33333,22.26901 -19.36842,22.26901 -14.40936,0 -19.46199,-10.76023 -19.46199,-22.26901 z"/>
		<path d="m 1065.2793,152.80702 h -17.5907 v 44.63158 c 0,12.91228 -3.9298,16.65497 -12.538,16.65497 -8.6082,0 -12.538,-3.74269 -12.538,-16.65497 v -44.63158 h -17.5907 v 49.77777 c 0,19.08772 10.4796,28.81872 30.1287,28.81872 19.6491,0 30.1287,-9.731 30.1287,-28.81872 z"/>
		<path d="m 1124.7486,152.80702 h -44.1638 V 230 h 44.1638 v -15.4386 h -26.5731 v -15.53216 h 25.4503 v -15.4386 h -25.4503 v -15.34503 h 26.5731 z"/>
		<path d="m 1184.0249,152.80702 h -44.1638 V 230 h 44.1638 v -15.4386 h -26.5731 v -15.53216 h 25.4503 v -15.4386 h -25.4503 v -15.34503 h 26.5731 z"/>
		<path d="m 1216.7281,182.09357 h 0.1872 L 1247.6053,230 h 17.5907 v -77.19298 h -17.5907 v 47.90643 h -0.1871 l -30.6901,-47.90643 h -17.5906 V 230 h 17.5906 z"/>
	</g>
	<g aria-label="SAX ROHMER">
		<path d="m 453.04386,331.05263 c -9.33333,0 -18.87719,6.8772 -18.87719,17.68421 0,6.03509 4.07017,11.4386 11.01754,14.8772 6.8772,3.43859 13.05263,5.33333 13.05263,9.54385 0,5.40351 -5.47368,5.68422 -8.35087,5.68422 -6.45614,0 -14.17544,-6.52632 -14.17544,-6.52632 l -6.59649,11.08772 c 0,0 8.21052,7.64912 21.75438,7.64912 11.29825,0 21.82456,-4.8421 21.82456,-18.66666 0,-7.57895 -7.08771,-13.05264 -13.54386,-15.78948 -6.59649,-2.80702 -12.07017,-5.12281 -12.07017,-8.35088 0,-3.15789 2.38596,-5.19298 6.87719,-5.19298 5.96491,0 11.7193,4 11.7193,4 l 5.33333,-10.52631 c 0,0 -7.43859,-5.47369 -17.96491,-5.47369 z"/>
		<path d="M 513.26316,332.10526 H 501.05264 L 477.68421,390 h 14.17544 l 4.2807,-11.57895 h 22.03509 L 522.45614,390 h 14.17544 z m 0.42105,34.73685 H 500.63158 L 507.08772,350 h 0.14035 z"/>
		<path d="m 597.99672,390 -22.5965,-31.15789 18.94737,-26.73685 h -16.42105 l -10.66667,15.78948 -10.66666,-15.78948 h -15.7193 L 559.11952,358.84211 537.22479,390 h 16.35087 L 567.25987,370.2807 580.94408,390 Z"/>
		<path d="M 629.06798,332.10526 V 390 h 13.19298 V 367.12281 L 659.94517,390 h 16.77193 l -19.92982,-23.92982 c 7.08772,-2.24562 11.85965,-8.07018 11.85965,-16.77193 0,-11.36842 -8.14035,-17.19299 -18.87719,-17.19299 z m 13.19298,25.68421 v -15.15789 h 1.54386 c 4.98246,0 10.94737,0.35088 10.94737,7.57895 0,7.22807 -5.96491,7.57894 -10.94737,7.57894 z"/>
		<path d="m 681.77303,361.01754 c 0,16.91228 12.07018,30.03509 29.19299,30.03509 16.63158,0 29.1228,-13.12281 29.1228,-30.03509 0,-16.91228 -13.05263,-29.96491 -29.1228,-29.96491 -15.92983,0 -29.19299,13.05263 -29.19299,29.96491 z m 14.24562,0 c 0,-8.63157 4.77193,-17.26315 14.94737,-17.26315 10.24561,0 14.87719,8.63158 14.87719,17.26315 0,8.63158 -4.35088,17.26316 -14.87719,17.26316 -10.80702,0 -14.94737,-8.63158 -14.94737,-17.26316 z"/>
		<path d="m 764.10307,366.77193 h 18.66666 V 390 h 13.19298 v -57.89474 h -13.19298 v 23.08772 H 764.10307 V 332.10526 H 750.91008 V 390 h 13.19299 z"/>
		<path d="m 857.22368,390 h 13.19298 l -5.19298,-57.89474 h -14.03509 l -12.8421,33.40351 -12.84211,-33.40351 H 811.4693 L 806.27631,390 h 13.19299 l 2.73684,-34.31579 h 0.35087 l 11.85965,33.96491 h 7.85965 l 11.85965,-33.96491 h 0.35088 z"/>
		<path d="M 913.82455,332.10526 H 880.70174 V 390 h 33.12281 v -11.57895 h -19.92983 v -11.64912 h 19.08772 v -11.57895 h -19.08772 v -11.50877 h 19.92983 z"/>
		<path d="M 926.40898,332.10526 V 390 h 13.19299 V 367.12281 L 957.28618,390 h 16.77193 l -19.92983,-23.92982 c 7.08772,-2.24562 11.85965,-8.07018 11.85965,-16.77193 0,-11.36842 -8.14035,-17.19299 -18.87719,-17.19299 z m 13.19299,25.68421 v -15.15789 h 1.54386 c 4.98245,0 10.94736,0.35088 10.94736,7.57895 0,7.22807 -5.96491,7.57894 -10.94736,7.57894 z"/>
	</g>
</svg>
